# Blender 3.3.1
# www.blender.org
o 6_(1)
v -2.578295 -0.790173 -0.312454
v 2.582803 -0.785661 -0.309579
v -2.582803 4.370921 -0.320058
v 2.578295 4.375433 -0.317184
v 2.588598 4.381229 -0.294484
v -2.588598 4.381229 -0.294484
v 2.588598 -0.795969 -0.294483
v -2.588598 -0.795968 -0.294484
v 2.865654 4.658284 -0.413406
v -2.865654 4.658284 -0.413406
v 3.417370 5.210000 -0.294484
v 3.417370 5.210000 -0.294484
v 3.417370 5.210000 -0.294484
v 3.417370 5.210000 0.126559
v 3.417370 5.210000 0.126559
v 3.417370 5.210000 0.126559
v -3.417369 5.210000 -0.294484
v -3.417369 5.210000 -0.294484
v -3.417369 5.210000 -0.294484
v -3.417369 5.210000 0.126558
v -3.417369 5.210000 0.126558
v -3.417369 5.210000 0.126558
v 3.417370 -1.624740 -0.294483
v 3.417370 -1.624740 -0.294483
v 3.417370 -1.624740 -0.294483
v 3.417370 -1.624740 0.126559
v 3.417370 -1.624740 0.126559
v 3.417370 -1.624740 0.126559
v -3.417370 -1.624740 -0.294484
v -3.417370 -1.624740 -0.294484
v -3.417370 -1.624740 -0.294484
v -3.417370 -1.624740 0.126559
v -3.417370 -1.624740 0.126559
v -3.417370 -1.624740 0.126559
v 3.417370 5.210000 -0.294484
v 3.417370 5.210000 -0.294484
v 3.417370 5.210000 0.126559
v 3.417370 5.210000 0.126559
v 3.417370 5.210000 0.126559
v -3.417369 5.210000 -0.294484
v -3.417369 5.210000 -0.294484
v -3.417369 5.210000 0.126558
v -3.417369 5.210000 0.126558
v -3.417369 5.210000 0.126558
v 3.417370 -1.624740 -0.294483
v 3.417370 -1.624740 -0.294483
v 3.417370 -1.624740 0.126559
v 3.417370 -1.624740 0.126559
v 3.417370 -1.624740 0.126559
v 3.417370 -1.624740 0.126559
v -3.417370 -1.624740 -0.294484
v -3.417370 -1.624740 -0.294484
v -3.417370 -1.624740 0.126559
v -3.417370 -1.624740 0.126559
v -3.417370 -1.624740 0.126559
v -3.417370 -1.624740 0.126559
v 3.417370 5.209999 -0.413406
v 3.417370 5.209999 -0.413406
v 3.417370 5.209999 -0.413406
v 3.417370 5.209999 -0.413406
v -3.417369 5.210000 -0.413406
v -3.417369 5.210000 -0.413406
v -3.417369 5.210000 -0.413406
v -3.417369 5.210000 -0.413406
v 3.417370 -1.624740 -0.413406
v 3.417370 -1.624740 -0.413406
v 3.417370 -1.624740 -0.413406
v 3.417370 -1.624740 0.126559
v 3.417370 -1.624740 0.126559
v 3.417370 -1.624740 0.126559
v -3.417370 -1.624740 -0.413406
v -3.417370 -1.624740 -0.413406
v -3.417370 -1.624740 -0.413406
v -3.417370 -1.624740 0.126559
v -3.417370 -1.624740 0.126559
v -3.417370 -1.624740 0.126559
v 2.865654 -1.073024 -0.413406
v 2.865654 -1.073024 -0.413406
v -2.865654 -1.073024 -0.413406
v -2.865654 -1.073024 -0.413406
vn -0.0006 0.0015 1.0000
vn -0.0000 -0.0000 -1.0000
vn -0.0000 1.0000 -0.0000
vn 1.0000 -0.0000 -0.0000
vn -0.0000 -0.0000 1.0000
vn -0.0000 -1.0000 -0.0000
vn -1.0000 -0.0000 -0.0000
vn -0.0000 -0.1420 -0.9899
vn -0.1420 -0.0000 -0.9899
vn -0.0000 0.1420 -0.9899
vn 0.1420 -0.0000 -0.9899
vt 0.000000 0.000000
vt 1.000000 0.000000
vt 0.000000 1.000000
vt 1.000000 1.000000
vt 0.625000 0.500000
vt 0.625000 0.750000
vt 0.875000 0.500000
vt 0.625000 0.250000
vt 0.875000 0.750000
vt 0.625000 0.000000
vt 0.625000 1.000000
vt 0.625000 0.500000
vt 0.625000 0.750000
vt 0.625000 0.500000
vt 0.625000 0.500000
vt 0.625000 0.500000
vt 0.375000 0.500000
vt 0.375000 0.500000
vt 0.375000 0.500000
vt 0.625000 0.750000
vt 0.625000 0.750000
vt 0.625000 0.750000
vt 0.375000 0.750000
vt 0.375000 0.750000
vt 0.375000 0.750000
vt 0.875000 0.500000
vt 0.625000 0.250000
vt 0.875000 0.500000
vt 0.625000 0.250000
vt 0.875000 0.500000
vt 0.375000 0.250000
vt 0.125000 0.500000
vt 0.375000 0.250000
vt 0.375000 0.250000
vt 0.625000 0.000000
vt 0.625000 1.000000
vt 0.875000 0.750000
vt 0.875000 0.750000
vt 0.625000 1.000000
vt 0.875000 0.750000
vt 0.125000 0.750000
vt 0.375000 0.000000
vt 0.375000 1.000000
vt 0.375000 0.000000
vt 0.375000 1.000000
vt 0.375000 0.000000
vt 0.375000 1.000000
vt 0.625000 0.500000
vt 0.625000 0.500000
vt 0.375000 0.500000
vt 0.375000 0.500000
vt 0.375000 0.500000
vt 0.625000 0.750000
vt 0.625000 0.750000
vt 0.375000 0.750000
vt 0.375000 0.750000
vt 0.375000 0.750000
vt 0.625000 0.250000
vt 0.000000 0.000000
vt 0.625000 0.250000
vt 0.000000 0.000000
vt 0.125000 0.500000
vt 0.375000 0.250000
vt 0.375000 0.250000
vt 0.375000 0.250000
vt 0.125000 0.500000
vt 0.375000 0.250000
vt 0.625000 1.000000
vt 0.625000 1.000000
vt 0.125000 0.750000
vt 0.375000 1.000000
vt 0.125000 0.750000
vt 0.375000 1.000000
vt 0.125000 0.750000
vt 0.375000 1.000000
vt 0.125000 0.750000
vt 0.375000 1.000000
vt 0.625000 0.500000
vt 0.625000 0.500000
vt 0.625000 0.500000
vt 0.625000 0.500000
vt 0.625000 0.750000
vt 0.625000 0.750000
vt 0.625000 0.750000
vt 0.625000 0.750000
vt 0.000000 0.000000
vt 0.625000 0.250000
vt 0.625000 0.250000
vt 0.000000 0.000000
vt 0.625000 0.250000
vt 0.375000 0.250000
vt 0.125000 0.500000
vt 0.375000 0.250000
vt 0.375000 0.250000
vt 0.625000 0.000000
vt 0.625000 1.000000
vt 0.625000 0.000000
vt 0.625000 1.000000
vt 0.625000 1.000000
vt 0.375000 1.000000
vt 0.375000 0.000000
vt 0.375000 1.000000
vt 0.125000 0.750000
vt 0.375000 1.000000
vt 0.375000 0.000000
vt 0.625000 0.250000
vt 0.625000 0.250000
vt 0.625000 0.000000
vt 0.625000 1.000000
vt 0.625000 1.000000
s 0
f 1/1/1 2/2/1 4/4/1 3/3/1
f 27/32/2 32/41/2 21/24/2 14/17/2
f 33/44/3 26/31/3 25/29/3 29/35/3
f 49/65/4 46/60/4 35/48/4 38/51/4
f 22/25/4 34/47/4 31/39/4 18/21/4
f 13/16/5 19/22/5 30/38/5 24/28/5
f 15/18/6 20/23/6 17/20/6 12/15/6
f 56/77/4 51/68/4 73/99/4 74/100/4
f 52/69/7 41/54/7 62/83/7 63/84/7 71/96/7
f 45/58/5 48/64/5 68/91/5 65/87/5
f 43/56/7 41/54/7 52/69/7 55/75/7
f 35/48/4 46/60/4 67/90/4 60/81/4 57/78/4
f 39/52/3 36/49/3 40/53/3 42/55/3
f 40/53/3 36/49/3 58/79/3 61/82/3
f 59/80/5 58/79/5 61/82/5 64/85/5 10/13/5 9/12/5
f 47/62/5 53/70/5 76/103/5 69/92/5
f 50/66/5 37/50/5 44/57/5 54/72/5
f 66/88/2 72/97/2 79/108/2 78/107/2
f 5/5/2 7/7/2 8/9/2 6/6/2
f 67/90/5 60/81/5 59/80/5 9/12/5 77/106/5
f 62/83/8 61/82/8 58/79/8 57/78/8 5/5/8 6/6/8
f 75/101/6 72/97/6 66/88/6 70/94/6
f 64/85/5 63/84/5 71/96/5 80/110/5 10/13/5
f 57/78/9 60/81/9 67/90/9 7/8/9 5/5/9
f 67/90/10 66/88/10 72/97/10 71/95/10 8/10/10 7/8/10
f 71/96/11 63/84/11 62/83/11 6/6/11 8/11/11
f 11/14/5 12/15/5 13/16/5
f 14/17/5 15/18/5 16/19/5
f 17/20/5 18/21/5 19/22/5
f 20/23/5 21/24/5 22/25/5
f 23/26/5 24/28/5 25/30/5
f 26/31/5 27/33/5 28/34/5
f 29/37/5 30/38/5 31/40/5
f 32/42/5 33/44/5 34/46/5
f 37/50/5 38/51/5 39/52/5
f 42/55/5 43/56/5 44/57/5
f 47/63/5 48/64/5 49/65/5 50/67/5
f 53/70/5 54/72/5 55/74/5 56/76/5
f 57/78/5 58/79/5 59/80/5 60/81/5
f 61/82/5 62/83/5 63/84/5 64/85/5
f 65/87/5 66/88/5 67/90/5
f 68/91/5 69/93/5 70/94/5
f 71/96/5 72/98/5 73/99/5
f 74/100/5 75/102/5 76/104/5
f 26/31/5 33/44/5 32/42/5 27/33/5
f 16/19/5 28/34/5 27/33/5 14/17/5
f 11/14/5 16/19/5 15/18/5 12/15/5
f 33/45/5 29/36/5 31/39/5 34/47/5
f 17/20/5 20/23/5 22/25/5 18/21/5
f 25/29/5 26/31/5 28/34/5 23/27/5
f 18/21/5 31/40/5 30/38/5 19/22/5
f 12/15/5 17/20/5 19/22/5 13/16/5
f 34/47/5 22/25/5 21/24/5 32/43/5
f 29/37/5 25/30/5 24/28/5 30/38/5
f 23/26/5 11/14/5 13/16/5 24/28/5
f 20/23/5 15/18/5 14/17/5 21/24/5
f 50/66/5 54/72/5 53/70/5 47/62/5
f 37/50/5 50/67/5 49/65/5 38/51/5
f 36/49/5 39/52/5 38/51/5 35/48/5
f 55/75/5 52/69/5 51/68/5 56/77/5
f 41/54/5 43/56/5 42/55/5 40/53/5
f 46/60/5 49/65/5 48/64/5 45/58/5
f 54/73/5 44/57/5 43/56/5 55/75/5
f 44/57/5 37/50/5 39/52/5 42/55/5
f 76/104/5 53/71/5 56/77/5 74/100/5
f 52/69/5 71/96/5 73/99/5 51/68/5
f 67/89/5 46/61/5 45/59/5 65/86/5
f 47/63/5 69/93/5 68/91/5 48/64/5
f 61/82/5 41/54/5 40/53/5 62/83/5
f 35/48/5 58/79/5 57/78/5 36/49/5
f 69/93/5 76/105/5 75/101/5 70/94/5
f 74/100/5 73/99/5 72/98/5 75/102/5
f 65/87/5 68/91/5 70/94/5 66/88/5
f 77/106/5 67/90/5 66/88/5 78/107/5
f 71/96/5 80/110/5 79/109/5 72/98/5
f 28/34/7 16/19/7 11/14/7 23/27/7
